<svg width="56" height="56" viewBox="0 0 56 56" fill="none" xmlns="http://www.w3.org/2000/svg">
<path d="M54.3982 7.65559C53.5744 6.83035 52.2377 6.82893 51.4139 7.65209L26.0943 32.9048L16.9591 22.9831C16.1698 22.1262 14.8352 22.0707 13.9769 22.8599C13.1193 23.6493 13.0644 24.9845 13.8537 25.8421L24.4769 37.3791C24.8659 37.802 25.4104 38.0475 25.9845 38.0594C25.9999 38.0601 26.0148 38.0601 26.0296 38.0601C26.5875 38.0601 27.1242 37.8385 27.5196 37.4445L54.394 10.6405C55.2199 9.81749 55.2213 8.48082 54.3982 7.65559Z" fill="#2F80ED"/>
<path d="M53.8894 25.8894C52.7237 25.8894 51.7789 26.8342 51.7789 28C51.7789 41.1122 41.1122 51.7789 28 51.7789C14.8886 51.7789 4.22111 41.1122 4.22111 28C4.22111 14.8886 14.8886 4.22111 28 4.22111C29.1657 4.22111 30.1106 3.27633 30.1106 2.11061C30.1106 0.944781 29.1657 0 28 0C12.5606 0 0 12.5606 0 28C0 43.4387 12.5606 56 28 56C43.4387 56 56 43.4387 56 28C56 26.8343 55.0552 25.8894 53.8894 25.8894Z" fill="#2F80ED"/>
</svg>
